<svg width="96" height="96" viewBox="0 0 96 96" fill="none" xmlns="http://www.w3.org/2000/svg">
<g id="logo">
<path id="Vector" fill-rule="evenodd" clip-rule="evenodd" d="M77.7589 95.5686C72.1711 95.8932 68.05 92.9927 64.224 89.4391C59.6797 85.2175 55.3857 80.7471 51.0921 76.2771C50.3851 75.5411 49.6781 74.805 48.97 74.0701C48.2964 73.3711 47.945 73.3343 47.236 74.0462C45.6983 75.5905 44.1341 77.1082 42.5699 78.6259C41.0434 80.1071 39.5168 81.5882 38.0149 83.0941C36.5068 84.6062 35.0805 86.2016 33.6556 87.7955L33.6516 87.8001L33.6475 87.8047L33.6435 87.8092C33.4694 88.0039 33.2953 88.1986 33.1211 88.3932C29.1214 92.8608 24.3963 95.7827 18.1524 95.599C16.961 95.5641 15.7881 95.477 14.6779 95.0429C7.71402 92.3187 2.57526 87.7629 0.292134 80.4505C-0.32365 78.4779 0.154833 76.4855 0.620156 74.5479C0.655935 74.3989 0.691635 74.2503 0.726754 74.102C1.43917 71.0905 2.96258 68.5425 5.13667 66.2778C6.38984 64.9725 7.63701 63.6611 8.884 62.3498L8.88521 62.3485C13.311 57.6947 17.7364 53.0413 22.4338 48.6546C23.0586 48.0711 22.7883 47.8207 22.3134 47.393C21.9636 47.0783 21.6136 46.7639 21.2635 46.4495L21.2588 46.4454L21.2542 46.4412C19.0013 44.4182 16.7486 42.3952 14.5962 40.2614C10.3914 36.0924 6.52268 31.6382 2.982 26.8952C1.43618 24.8247 0.448959 22.5147 0.120878 19.9622C-0.159409 17.7802 0.650583 15.7938 1.5935 13.903C4.06581 8.94342 7.33864 4.66891 12.3032 1.92926C17.2503 -0.800928 24.2639 -0.876101 29.1274 3.28042C34.7281 8.0677 39.8435 13.3155 44.8419 18.6987C45.0504 18.9234 45.2613 19.1464 45.4722 19.3695L45.4727 19.3699C46.1327 20.0679 46.7933 20.7664 47.3844 21.519C47.9514 22.2409 48.3288 22.091 48.8849 21.5459C50.4542 20.0082 52.0339 18.4807 53.6135 16.9535L53.6148 16.9521C54.7969 15.8093 55.9789 14.6664 57.1566 13.5191C58.1568 12.545 59.1468 11.5593 60.1365 10.574C62.0799 8.63927 64.023 6.70471 66.0446 4.8556C71.4184 -0.0601303 81.3056 -1.39137 87.8677 4.33933C90.5964 6.72202 93.1598 9.28991 94.5498 12.6404C96.9788 18.4941 96.3804 23.9281 91.8983 28.6721C90.7478 29.8897 89.6 31.11 88.4522 32.3303C83.7576 37.3214 79.0632 42.3123 74.1839 47.1252C73.4586 47.8411 73.6333 48.1861 74.2457 48.8149C75.5545 50.1597 76.8731 51.4952 78.1917 52.8307C82.0042 56.692 85.8169 60.5534 89.3931 64.6394C90.8095 66.2574 92.2313 67.8844 93.4949 69.6204C96.4695 73.7072 96.6542 78.2505 94.7913 82.7202C92.1661 89.0189 87.9484 93.8137 80.9078 95.4023C80.2334 95.5535 79.5544 95.5505 78.8772 95.5476C78.5036 95.546 78.1306 95.5444 77.7589 95.5686ZM9.24141 23.5651C9.88263 23.6777 9.95383 23.131 9.95731 22.7278C9.93242 21.7829 9.11445 20.7623 8.4802 20.8459C7.96891 20.9126 7.56118 21.2108 7.68664 21.7764C7.87582 22.6297 8.29699 23.3989 9.24141 23.5651ZM16.0948 22.4092C16.6827 22.4101 16.7678 21.8964 16.7987 21.3647C16.6588 20.6288 16.2307 20.1061 15.4112 20.0648C14.7919 20.0339 14.4563 20.4641 14.5619 21.0311C14.7112 21.8326 15.2235 22.4082 16.0948 22.4092ZM68.8331 74.7751C68.9486 75.477 69.0885 76.287 70.0478 76.2721C70.6225 76.263 70.6844 75.8224 70.7495 75.3594C70.763 75.2633 70.7767 75.1662 70.7951 75.0718C70.6403 74.4206 70.3341 73.8142 69.5261 73.7893C68.9207 73.7704 68.7534 74.2922 68.8331 74.7751ZM76.7005 61.5861C77.3358 61.5792 77.3552 61.0629 77.3726 60.5133C77.3178 59.9213 77.1048 59.2557 76.3844 59.194C75.7999 59.1437 75.3713 59.6326 75.4579 60.2728C75.5515 60.9673 75.8567 61.5956 76.7005 61.5861ZM27.367 54.4874C26.5928 54.4859 26.3902 54.9952 26.3902 55.6558C26.3847 56.2652 26.5659 56.7705 27.2644 56.7934C28.0575 56.8198 28.2024 56.2308 28.2233 55.605C28.2432 55.0121 28.1128 54.4888 27.367 54.4874ZM33.8166 62.9796C33.728 63.4944 33.9923 64.0873 34.5683 64.0679C35.3929 64.0398 35.4938 63.3182 35.5739 62.7454L35.5805 62.6983C35.5829 62.0686 35.5122 61.5538 34.8048 61.6016C34.0312 61.6541 33.9291 62.2866 33.8405 62.8348C33.8378 62.8517 33.8351 62.8686 33.8323 62.8853C33.8272 62.9171 33.822 62.9486 33.8166 62.9796ZM77.5155 67.8595C77.5439 67.1794 77.1939 66.6582 76.4387 66.4177C76.0195 66.5686 75.6023 66.7876 75.5958 67.3383C75.5863 68.1079 75.9727 68.6257 76.7523 68.7581C77.4592 68.8781 77.4986 68.2628 77.5155 67.8595ZM28.1879 78.2705C28.9133 78.3436 29.208 77.8383 29.2598 77.1767C29.3001 76.5728 29.0442 76.1536 28.4299 76.1571C27.7852 76.1611 27.2893 76.5161 27.2092 77.1911C27.1295 77.8647 27.6179 78.2132 28.1879 78.2705ZM13.0061 69.712C12.9688 70.3298 13.2889 70.8023 13.9376 70.8043C14.6366 70.8061 14.8067 70.2334 14.9653 69.6994L14.9655 69.6987C14.9672 69.6929 14.9689 69.6872 14.9706 69.6814C14.9781 69.6563 14.9855 69.6313 14.993 69.6065C14.8954 69.0668 14.6664 68.565 14.085 68.5635C13.4064 68.5615 13.0449 69.0668 13.0061 69.712ZM13.5209 77.114C13.4756 77.7158 13.9077 77.9877 14.3871 78.0658C15.2081 78.1032 15.3983 77.5655 15.4346 77.0109C15.4705 76.4598 15.342 75.8036 14.6386 75.8195C13.9142 75.836 13.5707 76.4483 13.5209 77.114ZM54.3174 68.9513C54.3373 69.6916 54.7231 70.296 55.4804 70.3572C56.0117 70.4004 56.0412 69.9727 56.072 69.5249C56.0785 69.4311 56.085 69.3364 56.0962 69.245C56.081 69.1803 56.0671 69.1127 56.053 69.0438C55.9525 68.5534 55.8386 67.9973 55.1249 67.9327C54.4478 67.8709 54.3034 68.434 54.3174 68.9513ZM77.5215 75.1758C77.4926 74.554 77.2282 74.0278 76.5233 73.9835C75.9244 73.987 75.5311 74.2359 75.6182 74.8124C75.7143 75.4482 75.9757 76.0894 76.7493 76.1302C77.3398 76.1616 77.5434 75.6508 77.5215 75.1758ZM67.013 22.9717C67.0528 23.6094 67.3639 24.2676 68.0913 24.3069C68.6674 24.3379 68.7965 23.8632 68.9157 23.4248C68.9401 23.3351 68.9641 23.2469 68.9914 23.1649C68.9461 22.4704 68.497 22.1712 67.9185 22.1393C67.4072 22.1109 66.9816 22.4649 67.013 22.9717ZM68.4671 67.5921C68.505 68.3001 68.9047 68.8198 69.5853 68.9075C70.1342 68.9782 70.2583 68.548 70.3729 68.151C70.3979 68.0647 70.4223 67.98 70.4506 67.9023C70.4326 67.2417 70.1319 66.7991 69.4887 66.7851C68.9944 66.7742 68.4288 66.8747 68.4671 67.5921ZM16.2486 15.7291C16.8017 15.8535 16.8216 15.4055 16.8206 14.8693C16.7678 14.2549 16.5792 13.5858 15.6895 13.4534C15.109 13.3668 14.9736 13.7317 14.9965 14.2206C15.0343 15.04 15.4799 15.5558 16.2486 15.7291ZM16.2605 29.5592C16.7534 29.6249 16.8246 29.1724 16.8191 28.577C16.7071 27.9835 16.2675 27.4533 15.4929 27.3204C15.0493 27.2442 14.7486 27.6251 14.8223 28.0244C14.9671 28.808 15.4142 29.4457 16.2605 29.5592ZM20.3668 69.7453C20.2423 70.3144 20.5301 70.8227 21.0558 70.8944C21.7081 70.9834 21.836 70.5359 21.9628 70.0923C22.0082 69.9333 22.0534 69.7748 22.1227 69.6418C22.1185 69.5761 22.1178 69.5081 22.117 69.4401C22.1129 69.075 22.1087 68.7098 21.582 68.7098C20.9229 68.7098 20.5042 69.1171 20.3668 69.7453ZM34.8267 70.4393C34.8332 70.9939 34.9517 71.7442 35.7243 71.6964C36.3098 71.66 36.3185 71.2187 36.3272 70.777C36.33 70.6388 36.3327 70.5005 36.3531 70.3746C36.3422 70.2914 36.3374 70.2009 36.3326 70.1086C36.3109 69.6973 36.2874 69.2514 35.7059 69.2579C35.0522 69.2644 34.8202 69.9071 34.8267 70.4393ZM76.9963 82.7097C77.4622 82.7172 77.5822 82.198 77.6076 81.7355L77.6022 81.716C77.447 81.1632 77.2841 80.5823 76.5253 80.6088C75.9632 80.6282 75.6755 81.027 75.7392 81.5303C75.8263 82.2209 76.3192 82.6988 76.9963 82.7097ZM69.4937 59.415C68.8729 59.3643 68.6807 59.891 68.7091 60.4635C68.7141 61.1291 69.0208 61.6967 69.6645 61.7584C70.3039 61.8191 70.2961 61.3283 70.2892 60.8905C70.2879 60.8075 70.2866 60.7263 70.2898 60.6512C70.3147 60.0617 70.1424 59.4678 69.4937 59.415ZM75.7885 23.4735C75.7511 22.791 75.3628 22.3126 74.6325 22.1552C74.2028 22.2349 73.7971 22.4405 73.8374 22.9369C73.8937 23.6249 74.2661 24.1028 75.0362 24.1282C75.4947 24.1432 75.8109 23.8883 75.7885 23.4735ZM35.8553 76.2173C35.0582 76.2417 35.0114 76.8979 35.002 77.5157L35.002 77.5174C35.0079 77.994 35.0151 78.5681 35.6447 78.5343C36.3885 78.4941 36.4707 77.8116 36.5396 77.2398L36.5428 77.2135C36.6025 76.7202 36.4492 76.1989 35.8553 76.2173ZM26.9662 63.1215C26.9478 63.6179 27.2356 63.9873 27.7747 64.0316C28.406 63.8668 28.7216 63.4695 28.6987 62.8447C28.6783 62.2722 28.3861 61.8246 27.7882 61.8883C27.123 61.959 26.9861 62.5843 26.9662 63.1215ZM19.9013 63.0159C19.9391 63.5636 20.2926 63.9325 21.0045 63.9205C21.4541 63.8618 21.7767 63.5163 21.7732 63.014C21.7692 62.3752 21.2982 62.0018 20.7123 61.9725C20.0601 61.9396 19.8659 62.5012 19.9013 63.0159ZM37.5474 29.0424C37.9746 29.0962 38.2126 28.7622 38.2444 28.334C38.0572 27.5987 37.6047 27.1531 36.8589 27.0555C36.4054 26.9963 36.26 27.296 36.3043 27.6808C36.3899 28.4236 36.7932 28.9474 37.5474 29.0424ZM75.3245 31.0836C75.8029 31.0896 76.0314 30.7013 76.0718 30.185C75.8851 29.6762 75.6058 29.1873 74.9571 29.2018C74.4478 29.2132 74.04 29.5323 74.0863 30.076C74.1461 30.775 74.6987 31.0757 75.3245 31.0836ZM20.8567 84.0016C20.7879 84.4557 20.9368 84.8714 21.4645 84.9097C22.1713 84.9613 22.3179 84.479 22.467 83.9888C22.5033 83.8692 22.5399 83.7491 22.5847 83.6362C22.5399 83.2181 22.4274 82.7496 21.9111 82.7904C21.239 82.8442 20.9497 83.3913 20.8567 84.0016ZM63.1457 68.2657C63.1636 67.6494 62.844 67.2521 62.1729 67.1675C61.6716 67.2397 61.3036 67.4791 61.3893 68.0561C61.4729 68.6162 61.7338 69.1275 62.3685 69.1823C62.9729 69.234 63.1322 68.7377 63.1457 68.2657ZM82.5881 74.5247C82.6383 75.0837 82.828 75.6891 83.4692 75.7235C84.0865 75.7563 84.1516 75.2206 84.2049 74.7819C84.2089 74.7486 84.2129 74.7159 84.217 74.684C84.215 73.9959 83.9024 73.5583 83.2686 73.5439C82.6682 73.5305 82.5447 74.0418 82.5881 74.5247ZM22.0938 13.9035C22.1316 14.575 22.5528 15.0555 23.1388 15.1655C23.6399 15.2598 23.6445 14.9175 23.6488 14.5888C23.6503 14.4802 23.6517 14.3732 23.671 14.2838C23.664 14.2263 23.6579 14.1681 23.6517 14.1097C23.5944 13.566 23.5359 13.0113 22.8112 12.9605C22.1864 12.9172 22.0649 13.3932 22.0938 13.9035ZM68.736 83.1C69.2299 83.0856 69.3912 82.6485 69.4394 82.1895C69.4205 82.1291 69.4023 82.0672 69.3839 82.0048C69.2333 81.4926 69.0727 80.947 68.4288 80.928C67.9842 80.9145 67.6811 81.384 67.7866 81.837C67.8048 81.9149 67.8202 81.9977 67.836 82.082C67.9279 82.5733 68.0303 83.1204 68.736 83.1ZM68.9754 30.0222C69.0068 29.4069 68.5946 29.1465 68.0624 29.0619C67.5277 29.1271 67.108 29.378 67.1016 29.9032C67.0951 30.4733 67.5217 30.8357 68.0684 30.8651C68.5826 30.8924 68.9481 30.5539 68.9754 30.0222ZM23.4121 35.6354C23.4031 34.931 23.0148 34.579 22.3985 34.473C21.9021 34.4819 21.6154 34.6985 21.6268 35.152C21.6452 35.8953 22.1182 36.3115 22.7997 36.3956C23.2652 36.4534 23.4176 36.0641 23.4121 35.6354ZM83.0306 23.1893C83.0476 22.7318 82.7658 22.4136 82.2475 22.3862C81.7233 22.5431 81.3728 22.8527 81.3952 23.4501C81.4151 23.9774 81.668 24.3458 82.2231 24.3493C82.9881 24.3541 83.0106 23.7391 83.0293 23.2274L83.0306 23.1893ZM62.4562 76.5255C62.959 76.6231 63.0615 76.2218 63.0999 75.8041C63.0563 75.6748 63.0264 75.533 62.9962 75.3899C62.8973 74.9216 62.7958 74.4403 62.2043 74.3449C61.7089 74.2653 61.4978 74.7696 61.5411 75.2022C61.5999 75.7827 61.7652 76.3916 62.4562 76.5255ZM74.3323 9.99586C74.8505 10.0377 74.9994 9.61551 75.0357 9.17591C75.0054 9.09816 74.9778 9.01752 74.9501 8.93683C74.7972 8.49103 74.6437 8.04367 74.043 8.07318C73.584 8.09608 73.2803 8.43113 73.3197 8.92051C73.368 9.52689 73.7299 9.94707 74.3323 9.99586ZM30.1241 35.6504C30.6169 35.7171 30.7703 35.3666 30.7628 34.93C30.7578 34.2584 30.3456 33.9273 29.7507 33.8477C29.3439 33.7934 28.9452 33.9905 28.9964 34.469C29.0651 35.1097 29.4649 35.5617 30.1241 35.6504ZM20.6356 76.999C20.5754 77.4888 20.8666 77.7826 21.4018 77.8154C21.9245 77.688 22.3547 77.4077 22.3094 76.8078C22.2775 76.3826 22.0286 75.9331 21.5337 75.947C20.9254 75.9639 20.6988 76.4867 20.6356 76.999ZM67.9056 16.769C68.3457 16.8148 68.5961 16.5609 68.6942 16.1318C68.6051 15.5339 68.2212 15.164 67.6581 15.0455C67.1633 14.9415 66.8083 15.2755 66.8462 15.735C66.8935 16.311 67.2947 16.7058 67.9056 16.769ZM67.4615 37.1046C67.5073 37.691 67.931 37.8399 68.397 37.8966C68.9222 37.7931 69.3145 37.5835 69.2592 36.9866C69.2045 36.3931 68.7803 36.2498 68.275 36.2423C67.6965 36.2333 67.4167 36.5296 67.4615 37.1046ZM28.9397 27.8591C29.0084 28.4734 29.2399 28.9847 29.9254 29.1714C30.3715 29.0634 30.5467 28.7492 30.4815 28.3345C30.3854 27.7286 30.1654 27.175 29.4201 27.1551C28.9447 27.1422 28.8999 27.5066 28.9397 27.8591ZM28.5588 70.9382C29.0895 70.9462 29.2593 70.5558 29.2523 70.0764C29.2379 69.4576 28.8824 69.1315 28.3039 69.1176C27.7941 69.1051 27.5143 69.4501 27.5915 69.944C27.6737 70.4702 27.9539 70.9292 28.5588 70.9382ZM22.86 22.0691C23.3723 22.1104 23.6217 21.8187 23.6401 21.1959C23.5027 20.7553 23.2752 20.2893 22.5981 20.2818C22.1944 20.2779 21.9245 20.5059 21.9778 20.8887C22.0515 21.415 22.1476 22.0119 22.86 22.0691ZM29.9289 22.332C30.4467 22.4042 30.5716 22.0607 30.601 21.642C30.5833 21.569 30.5676 21.4935 30.5518 21.4174C30.4529 20.9425 30.3496 20.4467 29.7437 20.4188C29.2951 20.3979 28.9496 20.8026 29.0074 21.2721C29.0701 21.7814 29.328 22.2479 29.9289 22.332ZM83.0974 30.4105C83.1377 29.9336 83.0048 29.4975 82.4138 29.4183C81.903 29.4656 81.4973 29.6976 81.441 30.2129C81.3763 30.8043 81.7646 31.1349 82.3257 31.1931C82.8649 31.2489 83.0615 30.8412 83.0974 30.4105ZM30.8997 13.8248C30.8026 13.1467 30.3152 12.7574 29.7133 12.5005C29.2673 12.5762 29.1667 12.9028 29.2294 13.2428C29.3419 13.8462 29.6461 14.359 30.3103 14.4571C30.721 14.5178 30.951 14.1813 30.8997 13.8248ZM74.6698 16.7531C75.1333 16.7476 75.3325 16.4584 75.3315 15.9854C75.2578 15.4214 74.9018 15.0908 74.3303 15.0988C73.9086 15.1052 73.601 15.4189 73.6512 15.846C73.716 16.3997 74.0714 16.7606 74.6698 16.7531ZM81.9598 16.8965C82.3506 16.9229 82.6747 16.7043 82.6702 16.1796C82.5642 15.6947 82.3068 15.2944 81.7213 15.2531C81.2533 15.2193 81.0169 15.5593 81.0159 15.9461C81.0149 16.5201 81.4176 16.8597 81.9598 16.8965ZM59.9973 22.1961C60.1048 22.7223 60.2592 23.366 60.8606 23.4472C61.3584 23.5141 61.3913 23.0566 61.4169 22.7018L61.4191 22.6713C61.4213 22.6413 61.4236 22.6122 61.4261 22.5844C61.4296 21.9536 61.2111 21.5548 60.5678 21.5563C60.1611 21.5573 59.9181 21.8097 59.9973 22.1961ZM61.9135 60.9165C61.9966 61.4199 62.1375 61.9531 62.731 62.0566C63.1602 62.1316 63.2511 61.7451 63.3341 61.3922L63.3363 61.3825C63.2044 60.8782 62.9336 60.4615 62.38 60.3584C61.9777 60.2838 61.8602 60.5954 61.9135 60.9165ZM22.8734 29.1355C23.2981 29.1246 23.3802 28.7661 23.3812 28.3415C23.322 27.9074 23.1333 27.4648 22.5752 27.4643C22.159 27.4638 22.0823 27.8601 22.0888 28.2125C22.0983 28.7268 22.284 29.1505 22.8734 29.1355ZM61.0776 30.4528C61.4535 30.5136 61.7243 30.3747 61.812 29.9455C61.7587 29.5751 61.6198 29.2411 61.1792 29.1629C60.7969 29.0942 60.4892 29.2426 60.4698 29.6468C60.4508 30.0391 60.6311 30.3807 61.0776 30.4528Z" fill="#37B9C5"/>
<g id="Vector_2">
<path d="M45.5323 36.4837C47.0992 37.957 47.8162 40.0292 49.4327 41.5538C50.7965 39.7751 52.901 39.2574 55.1798 39.1769C56.7571 39.1211 57.7222 39.7998 57.9537 41.4176C58.2662 43.6032 57.7338 45.6684 56.8387 47.5916C55.165 51.1878 52.7403 54.2827 49.9767 57.1616C48.8283 58.358 47.2966 58.7629 46.0229 59.6577C45.6223 59.939 45.2455 59.4917 45.0249 59.1197C43.9768 57.3517 42.8117 55.6363 41.9321 53.7897C40.8853 51.5915 39.5646 49.5231 38.8444 47.1607C37.896 44.0468 37.8323 40.9854 39.0135 37.9431C39.6778 36.2315 40.9425 35.2816 42.8767 35.3557C43.4483 36.4482 44.3414 36.8062 45.5323 36.4837Z" fill="#FF5A5A"/>
<path d="M42.8767 35.3557C43.4483 36.4482 44.3414 36.8062 45.5323 36.4837C44.8359 35.6764 43.7814 35.689 42.8767 35.3557Z" fill="#FF5A5A"/>
</g>
</g>
</svg>
